<svg xmlns="http://www.w3.org/2000/svg" viewBox="0 0 512 512">
  <path
    d="M501.1,187.6c-0.7,0.9-1.7,2.7-3.3,3.9c-16.7,13-33.4,25.9-50.2,38.8c-8.2,6.3-16.4,12.6-24.5,19c-6,4.7-5.9,8.8,0.2,13.5
		c24.5,18.9,48.9,37.8,73.4,56.7c0.4,0.3,0.7,0.6,1.1,0.9c3.4,2.7,4.1,5,2.5,7.8c-1.6,2.7-4,3.2-8.1,1.6c-7.2-2.9-14.4-5.9-21.5-8.8
		c-22.1-9-44.1-18-66.2-27.1c-6.1-2.5-9.9-0.6-10.9,5.9c-2.8,19.8-5.5,39.5-8.2,59.3c-1.7,12.1-3.3,24.2-5,36.3
		c-0.4,3-2.1,4.8-5.1,4.9c-3.1,0.1-5-1.9-5.4-4.9c-2.6-19.1-5.2-38.1-7.8-57.2c-1.8-12.9-3.4-25.8-5.3-38.7
		c-0.9-5.8-4.8-7.9-10.2-5.8c-27.6,11.2-55.3,22.5-82.8,33.8c-2.9,1.2-5.3,4.1-9,3.2c-0.8-0.2-1.7-0.1-2.4-0.5
		c-14.7-6.3-29.4-12.8-44.2-19.1c-13.7-5.8-27.6-11.3-41.4-16.9c-7.4-3-11-0.7-12,7.1c-2.6,19.9-5.4,39.8-8.1,59.7
		c-1.5,11.2-3,22.3-4.5,33.5c-0.5,3.8-2.5,5.8-5.4,5.8c-2.9,0-4.8-2.1-5.3-5.9c-4.2-31.2-8.5-62.3-12.7-93.5
		c-1-7.6-4.7-9.7-11.7-6.9c-28.6,11.7-57.2,23.4-85.8,35.1c-1.1,0.4-2.2,0.9-3.3,1.2c-2.7,0.7-4.9,0.1-6.3-2.4
		c-1.3-2.5-0.9-4.8,1.3-6.6c4.6-3.7,9.3-7.2,13.9-10.8c20.5-15.9,41.1-31.7,61.7-47.6c6.4-5,6.4-8.9-0.1-13.9
		c-24.4-18.8-48.7-37.6-73.1-56.5c-0.9-0.7-1.9-1.4-2.7-2.2c-1.9-1.9-2.3-4.1-1-6.4c1.3-2.4,3.5-3.2,6-2.4c3.1,1,6.1,2.4,9.2,3.6
		C53.5,196,80.3,207,107,217.9c6.9,2.8,10.5,0.8,11.5-6.6c3.6-26.6,7.2-53.3,10.8-79.9c0.6-4.5,1.3-9.1,2-13.6
		c0.6-4.1,2.4-6.1,5.4-6.1c3.1,0,4.8,1.9,5.4,6.2c1.9,13.2,3.7,26.5,5.5,39.8c2.5,18.3,4.8,36.5,7.3,54.8c0.8,5.7,4.9,8.1,10.2,6
		c27.7-11.3,55.5-22.6,83.2-34c2.8-1.2,5-4,8.6-3.1c0.8,0.2,1.7,0.1,2.4,0.4c13.1,5.7,26.2,11.5,39.3,17
		c15.7,6.6,31.5,12.9,47.3,19.4c6.2,2.5,10.1,0.5,11-6.2c3.2-23,6.3-46,9.4-69.1c1.2-8.5,2.3-17,3.5-25.5c0.6-3.9,2.5-5.9,5.5-5.7
		c3.3,0.2,4.8,2.3,5.2,5.6c3.2,24,6.5,47.9,9.8,71.9c1.1,7.9,2.1,15.8,3.4,23.7c0.9,5.6,4.8,7.7,10,5.5c29-11.9,58.1-23.7,87.1-35.6
		c1.3-0.5,2.6-1.1,4-1.4C498.2,180.7,501,183.1,501.1,187.6z M256.2,194.4c-0.6,0.3-1,0.4-1.2,0.6c-23.7,18.3-47.4,36.6-71.1,54.9
		c-4.9,3.8-4.9,8.4,0.1,12.2c23.2,18,46.5,35.9,69.7,53.9c1.9,1.5,3.1,1.3,4.8-0.1c5-4,10.2-7.9,15.3-11.9c18.1-14,36.2-28,54.4-42
		c2.6-2,4.6-4.5,3.1-7.8c-0.9-2.1-2.8-4-4.7-5.4c-14.4-11.3-29-22.4-43.5-33.6C274.1,208.2,265.1,201.3,256.2,194.4z"/>
</svg>
