<?xml version="1.0" encoding="utf-8"?>
<!-- Generator: Adobe Illustrator 26.2.1, SVG Export Plug-In . SVG Version: 6.00 Build 0)  -->
<svg version="1.1" id="Layer_1" xmlns="http://www.w3.org/2000/svg" xmlns:xlink="http://www.w3.org/1999/xlink" x="0px" y="0px"
	 viewBox="0 0 15 15" style="enable-background:new 0 0 15 15;" xml:space="preserve">
<style type="text/css">
	.st0{fill-rule:evenodd;clip-rule:evenodd;}
</style>
<path class="st0" d="M14.7,5.5c0,0,0,0.1-0.1,0.1c-0.5,0.4-1,0.8-1.5,1.1c-0.2,0.2-0.5,0.4-0.7,0.6c-0.2,0.1-0.2,0.3,0,0.4
	c0.7,0.6,1.4,1.1,2.2,1.7c0,0,0,0,0,0c0.1,0.1,0.1,0.1,0.1,0.2c0,0.1-0.1,0.1-0.2,0c-0.2-0.1-0.4-0.2-0.6-0.3
	c-0.6-0.3-1.3-0.5-1.9-0.8c-0.2-0.1-0.3,0-0.3,0.2c-0.1,0.6-0.2,1.2-0.2,1.7c0,0.4-0.1,0.7-0.1,1.1c0,0.1-0.1,0.1-0.1,0.1
	c-0.1,0-0.1-0.1-0.2-0.1c-0.1-0.6-0.2-1.1-0.2-1.7c-0.1-0.4-0.1-0.8-0.2-1.1c0-0.2-0.1-0.2-0.3-0.2c-0.8,0.3-1.6,0.7-2.4,1
	c-0.1,0-0.2,0.1-0.3,0.1c0,0,0,0-0.1,0C7,9.5,6.5,9.3,6.1,9.1C5.7,8.9,5.3,8.8,4.9,8.6c-0.2-0.1-0.3,0-0.4,0.2
	C4.5,9.4,4.4,10,4.3,10.6c0,0.3-0.1,0.7-0.1,1c0,0.1-0.1,0.2-0.2,0.2c-0.1,0-0.1-0.1-0.2-0.2c-0.1-0.9-0.2-1.8-0.4-2.7
	c0-0.2-0.1-0.3-0.3-0.2C2.3,9,1.5,9.3,0.6,9.6c0,0-0.1,0-0.1,0c-0.1,0-0.1,0-0.2-0.1c0-0.1,0-0.1,0-0.2c0.1-0.1,0.3-0.2,0.4-0.3
	C1.4,8.6,2,8.2,2.6,7.7c0.2-0.1,0.2-0.3,0-0.4C1.9,6.7,1.2,6.2,0.4,5.6c0,0-0.1,0-0.1-0.1c-0.1-0.1-0.1-0.1,0-0.2
	c0-0.1,0.1-0.1,0.2-0.1c0.1,0,0.2,0.1,0.3,0.1c0.8,0.3,1.6,0.6,2.4,1c0.2,0.1,0.3,0,0.3-0.2c0.1-0.8,0.2-1.6,0.3-2.3
	c0-0.1,0-0.3,0.1-0.4c0-0.1,0.1-0.2,0.2-0.2c0.1,0,0.1,0.1,0.2,0.2c0.1,0.4,0.1,0.8,0.2,1.2c0.1,0.5,0.1,1.1,0.2,1.6
	c0,0.2,0.1,0.2,0.3,0.2c0.8-0.3,1.6-0.7,2.4-1c0.1,0,0.1-0.1,0.3-0.1c0,0,0,0,0.1,0C8,5.5,8.4,5.7,8.7,5.8C9.2,6,9.7,6.2,10.1,6.4
	c0.2,0.1,0.3,0,0.3-0.2c0.1-0.7,0.2-1.3,0.3-2c0-0.2,0.1-0.5,0.1-0.7c0-0.1,0.1-0.2,0.2-0.2c0.1,0,0.1,0.1,0.2,0.2
	c0.1,0.7,0.2,1.4,0.3,2.1c0,0.2,0.1,0.5,0.1,0.7c0,0.2,0.1,0.2,0.3,0.2c0.9-0.3,1.7-0.7,2.6-1c0,0,0.1,0,0.1,0
	C14.6,5.3,14.7,5.4,14.7,5.5z M7.5,5.7C7.5,5.7,7.5,5.7,7.5,5.7C6.8,6.2,6.1,6.8,5.4,7.3c-0.1,0.1-0.1,0.2,0,0.4
	c0.7,0.5,1.4,1.1,2,1.6c0.1,0,0.1,0,0.1,0C7.7,9.1,7.9,9,8,8.9c0.5-0.4,1.1-0.8,1.6-1.2c0.1-0.1,0.1-0.1,0.1-0.2
	c0-0.1-0.1-0.1-0.1-0.2C9.1,7,8.7,6.6,8.3,6.3C8,6.1,7.8,5.9,7.5,5.7z"/>
</svg>
