<?xml version="1.0" encoding="utf-8"?>
<!-- Generator: Adobe Illustrator 26.0.3, SVG Export Plug-In . SVG Version: 6.00 Build 0)  -->
<svg version="1.1" id="Layer_1" xmlns="http://www.w3.org/2000/svg" xmlns:xlink="http://www.w3.org/1999/xlink" x="0px" y="0px"
	 viewBox="0 0 30 30" style="enable-background:new 0 0 30 30;" xml:space="preserve">
<g>
	<path d="M29.5,16.1c-0.1,0.4-0.1,0.9-0.2,1.3c-0.3,2-0.9,3.8-2,5.5c-1.2,1.9-2.7,3.5-4.6,4.7c-1,0.6-2,1.1-3.1,1.5
		c-0.6,0.2-1-0.1-1-0.8c0-1.3,0-2.5,0-3.8c0-0.8-0.1-1.5-0.5-2.2c-0.1-0.2-0.3-0.4-0.4-0.6c0.6-0.1,1.1-0.2,1.7-0.3
		c1.5-0.4,2.8-1,3.7-2.3c0.7-1,1-2,1.1-3.2c0.1-0.9,0.1-1.8-0.1-2.7c-0.2-0.9-0.6-1.7-1.2-2.4c-0.1-0.2-0.2-0.3-0.1-0.5
		c0.4-1.2,0.2-2.3-0.2-3.5c0-0.1-0.1-0.1-0.2-0.1c-0.5-0.1-1,0.1-1.5,0.3c-0.7,0.3-1.4,0.7-2.2,1.1c-0.1,0.1-0.3,0.1-0.4,0.1
		c-2.3-0.6-4.5-0.6-6.8,0c-0.1,0-0.3,0-0.4-0.1c-0.9-0.6-1.9-1.1-3-1.3c0,0,0,0-0.1,0c-0.7-0.1-0.8-0.1-1,0.6c-0.3,1-0.4,2.1,0,3.1
		c0,0.1,0,0.2-0.1,0.3c-1.2,1.4-1.5,3-1.3,4.7c0.1,1.1,0.3,2.1,0.8,3c0.7,1.3,1.8,2.1,3.1,2.6c0.8,0.3,1.7,0.5,2.6,0.7c0,0,0,0,0,0
		c-0.5,0.5-0.7,1-0.8,1.7c0,0.1-0.1,0.2-0.1,0.2c-1,0.4-2,0.6-3,0c-0.5-0.3-0.8-0.7-1.1-1.1c-0.4-0.7-1-1.2-1.8-1.5
		c-0.3-0.1-0.6-0.1-0.9,0c-0.2,0-0.3,0.2-0.1,0.3c0.1,0.2,0.3,0.3,0.4,0.4C5.6,22.3,6,23,6.4,23.8c0.2,0.5,0.4,0.9,0.8,1.3
		c0.6,0.6,1.4,0.8,2.2,0.8c0.7,0,1.4,0,2.1,0c0,0,0,0.1,0,0.1c0,0.8,0,1.5,0,2.3c0,0.7-0.4,1.1-1.2,0.8C6.6,27.8,3.9,25.4,2,22
		c-1.4-2.6-1.8-5.4-1.5-8.2c0.3-3,1.5-5.7,3.5-8c2.1-2.4,4.7-4,7.8-4.6c4.5-0.9,8.6,0,12.3,2.9c2.7,2.2,4.4,5.1,5.1,8.5
		c0.1,0.5,0.1,1,0.2,1.5c0,0.1,0,0.2,0.1,0.3C29.5,15,29.5,15.6,29.5,16.1z"/>
</g>
</svg>
