<?xml version="1.0" encoding="utf-8"?>
<!-- Generator: Adobe Illustrator 26.0.3, SVG Export Plug-In . SVG Version: 6.00 Build 0)  -->
<svg version="1.1" id="Layer_1" xmlns="http://www.w3.org/2000/svg" xmlns:xlink="http://www.w3.org/1999/xlink" x="0px" y="0px"
	 viewBox="0 0 30 30" style="enable-background:new 0 0 30 30;" xml:space="preserve">
<g>
	<path d="M29.5,8c-0.3-2.2-1.3-4-3-5.4c-0.6-0.5-1.3-0.9-2-1.2c-1.1-0.5-2.4-0.8-3.6-0.8c-3.9,0-7.8,0-11.7,0c-2.7,0-5,1.1-6.7,3.1
		c-1.3,1.6-2,3.5-2,5.5c0,0.4,0,0.7,0,1.1c0,0.5,0,0.9,0,1.4c0,3.1,0,6.3,0,9.4c0,1.4,0.4,2.8,1.1,4c0.8,1.4,1.9,2.5,3.3,3.3
		c0.9,0.5,1.9,0.9,3,1c0.1,0,0.3,0,0.4,0.1c4.5,0,9,0,13.4,0c0.2-0.1,0.5-0.1,0.8-0.2c1-0.2,1.9-0.5,2.8-1.1c1.1-0.6,2-1.5,2.7-2.5
		c0.8-1.1,1.3-2.3,1.5-3.6c0-0.2,0-0.3,0.1-0.5c0-4.1,0-8.2,0-12.4c0-0.4,0-0.8,0-1.1C29.5,8.2,29.5,8.1,29.5,8z M26.7,20.7
		c0,0.7-0.1,1.5-0.3,2.2c-0.7,1.9-2.1,3.1-4.1,3.7c-0.5,0.1-1,0.1-1.5,0.1c-3.8,0-7.6,0-11.4,0c-1.5,0-2.8-0.4-3.9-1.4
		c-1.1-0.9-1.7-2.1-1.9-3.4c-0.1-0.4-0.1-0.8-0.1-1.2c0-3.4,0-6.9,0-10.3c0-0.7,0-1.3,0.1-2c0.2-1.1,0.6-2,1.3-2.8
		c1.2-1.3,2.7-2,4.4-2c3.8,0,7.7,0,11.5,0c2.2,0,3.9,1,5.1,2.9c0.6,0.9,0.8,2,0.8,3.1C26.7,13.2,26.7,17,26.7,20.7z"/>
	<path d="M20.4,9.8c-1.8-1.7-3.9-2.5-6.3-2.2C12.4,7.9,11,8.6,9.8,9.8c-1.2,1.2-1.9,2.6-2.1,4.3c-0.2,1.4,0,2.7,0.5,3.9
		c1.1,2.4,3,4,5.7,4.4c2,0.3,3.8,0,5.4-1.2c2.5-1.8,3.6-4.2,3.2-7.2C22.3,12.4,21.6,11,20.4,9.8z M15.2,19.7
		c-2.6,0.1-4.6-2.1-4.7-4.5c0-2.5,1.9-4.6,4.5-4.7c2.6,0,4.6,2,4.7,4.5C19.7,17.5,17.7,19.6,15.2,19.7z"/>
	<path d="M22.6,5.8c-1,0-1.8,0.8-1.8,1.8c0,1,0.8,1.8,1.8,1.8c1,0,1.8-0.8,1.8-1.8C24.4,6.6,23.6,5.8,22.6,5.8z"/>
</g>
</svg>
