<?xml version="1.0" encoding="utf-8"?>
<!-- Generator: Adobe Illustrator 26.0.3, SVG Export Plug-In . SVG Version: 6.00 Build 0)  -->
<svg version="1.1" id="Layer_1" xmlns="http://www.w3.org/2000/svg" xmlns:xlink="http://www.w3.org/1999/xlink" x="0px" y="0px"
	 viewBox="0 0 34.5 30" style="enable-background:new 0 0 34.5 30;" xml:space="preserve">
<style type="text/css">
	.st0{fill:#2AA9E0;}
</style>
<path class="st0" d="M34.1,4.5c-1.2,0.6-2.6,0.9-4,1.1c1.4-0.9,2.5-2.2,3-3.8c-1.3,0.8-2.8,1.4-4.4,1.7c-1.3-1.3-3.1-2.2-5.1-2.2
	c-3.8,0-6.9,3.1-6.9,6.9c0,0.5,0.1,1.1,0.2,1.6c-5.8-0.3-10.9-3-14.3-7.2C2.1,3.6,1.8,4.8,1.8,6c0,2.4,1.2,4.5,3.1,5.8
	c-1.1,0-2.2-0.3-3.1-0.9c0,0,0,0.1,0,0.1c0,3.4,2.4,6.2,5.6,6.8c-0.6,0.2-1.2,0.2-1.8,0.2c-0.4,0-0.9,0-1.3-0.1
	c0.9,2.8,3.4,4.8,6.5,4.8c-2.4,1.9-5.4,3-8.6,3c-0.6,0-1.1,0-1.7-0.1c3.1,2,6.7,3.1,10.6,3.1c12.7,0,19.7-10.6,19.7-19.7
	c0-0.3,0-0.6,0-0.9C32,7.1,33.2,5.9,34.1,4.5z"/>
</svg>
