<?xml version="1.0" encoding="utf-8"?>
<!-- Generator: Adobe Illustrator 26.0.3, SVG Export Plug-In . SVG Version: 6.00 Build 0)  -->
<svg version="1.1" id="Layer_1" xmlns="http://www.w3.org/2000/svg" xmlns:xlink="http://www.w3.org/1999/xlink" x="0px" y="0px"
	 viewBox="0 0 36 36" style="enable-background:new 0 0 36 36;" xml:space="preserve">
<style type="text/css">
	.st0{fill:none;stroke:#000000;stroke-linecap:round;stroke-linejoin:round;}
</style>
<g>
	<path id="Cube_4" class="st0" d="M19.1,4l-2.7,9.5l-2.8,9.9 M7.5,24.2l2.8-9.4L13,5.7 M21.7,27.3l2.6-9.6l2.5-9.3 M34,12.6
		l-7.2-4.2L19.1,4L13,5.7L7.5,7.3L4.8,16L2,25 M34,12.6l-2.3,9.1l-2.4,9.4 M29.3,31.1l-7.6-3.8l-8.1-4l-6.1,0.9L2,25 M7.5,24.2
		l7.9,3.8l7.5,3.6l6.4-0.5 M2,25l7.7,3.6l5.7-0.6l6.2-0.7 M9.8,28.6l7.3,3.4l5.8-0.4 M31.7,21.7l-7.4-4l-7.9-4.2l-6.1,1.3L4.8,16"/>
</g>
</svg>
